<?xml version="1.0" encoding="UTF-8"?>
<svg height="128px" viewBox="0 0 128 128" width="128px" xmlns="http://www.w3.org/2000/svg" xmlns:xlink="http://www.w3.org/1999/xlink">
    <linearGradient id="a" gradientTransform="matrix(0.116071 0 0 0.171654 -2.105718 137.460449)" gradientUnits="userSpaceOnUse" x1="88.595886" x2="536.595886" y1="-449.394012" y2="-449.394012">
        <stop offset="0" stop-color="#a51d2d"/>
        <stop offset="0.03" stop-color="#ed333b"/>
        <stop offset="0.08" stop-color="#c01c28"/>
        <stop offset="0.92" stop-color="#c01c28"/>
        <stop offset="0.97" stop-color="#ed333b"/>
        <stop offset="1" stop-color="#a51d2d"/>
    </linearGradient>
    <linearGradient id="b" gradientTransform="matrix(0.116071 0 0 0.171315 53.800365 134.829803)" gradientUnits="userSpaceOnUse" x1="88.595886" x2="536.595886" y1="-449.394012" y2="-449.394012">
        <stop offset="0" stop-color="#1a5fb4"/>
        <stop offset="0.03" stop-color="#62a0ea"/>
        <stop offset="0.08" stop-color="#1c71d8"/>
        <stop offset="0.92" stop-color="#1c71d8"/>
        <stop offset="0.97" stop-color="#62a0ea"/>
        <stop offset="1" stop-color="#1a5fb4"/>
    </linearGradient>
    <linearGradient id="c" gradientTransform="matrix(0.116071 0 0 0.171088 -2.489745 192.904114)" gradientUnits="userSpaceOnUse" x1="90.373192" x2="530.293762" y1="-449.499725" y2="-449.496765">
        <stop offset="0" stop-color="#1a5fb4"/>
        <stop offset="0.03" stop-color="#3584e4"/>
        <stop offset="0.08" stop-color="#1c71d8"/>
        <stop offset="0.92" stop-color="#1c71d8"/>
        <stop offset="0.97" stop-color="#3584e4"/>
        <stop offset="1" stop-color="#1a5fb4"/>
    </linearGradient>
    <radialGradient id="d" cx="33.539711" cy="225.655197" gradientTransform="matrix(1 0 0 0.88235 0 -148.173681)" gradientUnits="userSpaceOnUse" r="23.136">
        <stop offset="0" stop-color="#f66151"/>
        <stop offset="1" stop-color="#ed333b"/>
    </radialGradient>
    <linearGradient id="e" gradientUnits="userSpaceOnUse">
        <stop offset="0" stop-color="#99c1f1"/>
        <stop offset="1" stop-color="#62a0ea"/>
    </linearGradient>
    <radialGradient id="f" cx="33.530952" cy="282.217834" gradientTransform="matrix(1 0 0 0.901315 0 -146.441233)" r="23.224388" xlink:href="#e"/>
    <radialGradient id="g" cx="90.490067" cy="254.545319" gradientTransform="matrix(1 0 0 2.083168 0 -422.234604)" r="23.524206" xlink:href="#e"/>
    <linearGradient id="h" gradientTransform="matrix(1.043252 0 0 1.110724 -2.775632 -192.51955)" gradientUnits="userSpaceOnUse" x1="64.043953" x2="64.043953" y1="230.440704" y2="249.981949">
        <stop offset="0" stop-color="#241f31"/>
        <stop offset="0.428166" stop-color="#c0bfbc"/>
        <stop offset="1" stop-color="#5e5c64"/>
    </linearGradient>
    <linearGradient id="i" gradientTransform="matrix(1.043252 0 0 1.110724 -2.775632 -192.51955)" gradientUnits="userSpaceOnUse" x1="64.049698" x2="64.049698" y1="224.146851" y2="249.802277">
        <stop offset="0" stop-color="#5e5c64"/>
        <stop offset="0.560401" stop-color="#c0bfbc"/>
        <stop offset="1" stop-color="#77767b"/>
    </linearGradient>
    <linearGradient id="j" gradientTransform="matrix(1.043252 0 0 1.110724 -2.775632 -192.51955)" gradientUnits="userSpaceOnUse" x1="52.621349" x2="75.281502" y1="247.318771" y2="247.318771">
        <stop offset="0" stop-color="#241f31"/>
        <stop offset="0.487189" stop-color="#5e5c64"/>
        <stop offset="1" stop-color="#241f31"/>
    </linearGradient>
    <linearGradient id="k" gradientTransform="matrix(1.043252 0 0 1.110724 -2.775632 -192.51955)" gradientUnits="userSpaceOnUse" x1="81.093063" x2="112.001953" y1="213.991241" y2="213.991241">
        <stop offset="0" stop-color="#77767b"/>
        <stop offset="1" stop-color="#3d3846"/>
    </linearGradient>
    <linearGradient id="l" gradientTransform="matrix(1.043252 0 0 1.110724 -2.775632 -192.51955)" gradientUnits="userSpaceOnUse" spreadMethod="reflect" x1="49.92416" x2="56.404819" y1="200.494965" y2="206.457336">
        <stop offset="0" stop-color="#deddda"/>
        <stop offset="1" stop-color="#ffffff"/>
    </linearGradient>
    <linearGradient id="m" gradientTransform="matrix(1.129319 0 0 1.110724 -6.307921 -192.51955)" gradientUnits="userSpaceOnUse" x1="32.103176" x2="29.313478" y1="199.169144" y2="216.167007">
        <stop offset="0" stop-color="#77767b"/>
        <stop offset="0.430379" stop-color="#c0bfbc"/>
        <stop offset="0.694718" stop-color="#6e6b70"/>
        <stop offset="1" stop-color="#3d3846"/>
    </linearGradient>
    <path d="m 12.015625 8 h 43.019531 c 2.207032 0 4 1.867188 4 4.175781 v 42.65625 c 0 2.304688 -1.792968 4.171875 -4 4.171875 h -43.019531 c -2.207031 0 -4 -1.867187 -4 -4.171875 v -42.65625 c 0 -2.308593 1.792969 -4.175781 4 -4.175781 z m 0 0" fill="url(#a)"/>
    <path d="m 12.015625 8 h 43.046875 c 2.207031 0 4 1.722656 4 3.84375 v 37.351562 c 0 2.121094 -1.792969 3.84375 -4 3.84375 h -43.046875 c -2.207031 0 -4 -1.722656 -4 -3.84375 v -37.351562 c 0 -2.121094 1.792969 -3.84375 4 -3.84375 z m 0 0" fill="#ed333b"/>
    <path d="m 69.019531 8 h 43.0625 c 2.210938 0 4 1.863281 4 4.164062 v 99.671876 c 0 2.300781 -1.789062 4.164062 -4 4.164062 h -43.0625 c -2.207031 0 -4 -1.863281 -4 -4.164062 v -99.671876 c 0 -2.300781 1.792969 -4.164062 4 -4.164062 z m 0 0" fill="url(#b)"/>
    <path d="m 69.019531 8 h 43.0625 c 2.210938 0 4 1.753906 4 3.921875 v 94.144531 c 0 2.167969 -1.789062 3.925782 -4 3.925782 h -43.0625 c -2.207031 0 -4 -1.757813 -4 -3.925782 v -94.144531 c 0 -2.167969 1.792969 -3.921875 4 -3.921875 z m 0 0" fill="#62a0ea"/>
    <path d="m 12 63.988281 h 43.0625 c 2.207031 0 4 1.863281 4 4.164063 v 43.6875 c 0 2.296875 -1.792969 4.160156 -4 4.160156 h -43.0625 c -2.210938 0 -4 -1.863281 -4 -4.160156 v -43.6875 c 0 -2.300782 1.789062 -4.164063 4 -4.164063 z m 0 0" fill="url(#c)"/>
    <path d="m 12.007812 63.988281 h 43.046876 c 2.207031 0 4 1.71875 4 3.835938 v 38.339843 c 0 2.117188 -1.792969 3.832032 -4 3.832032 h -43.046876 c -2.207031 0 -4 -1.714844 -4 -3.832032 v -38.339843 c 0 -2.117188 1.792969 -3.835938 4 -3.835938 z m 0 0" fill="#62a0ea"/>
    <path d="m 12.792969 10.105469 h 41.492187 c 1.320313 0 2.390625 1.070312 2.390625 2.390625 v 36.046875 c 0 1.320312 -1.070312 2.390625 -2.390625 2.390625 h -41.492187 c -1.320313 0 -2.390625 -1.070313 -2.390625 -2.390625 v -36.046875 c 0 -1.320313 1.070312 -2.390625 2.390625 -2.390625 z m 0 0" fill="url(#d)"/>
    <path d="m 13.019531 66.0625 h 41.019531 c 1.5 0 2.714844 1.214844 2.714844 2.714844 v 36.433594 c 0 1.5 -1.214844 2.714843 -2.714844 2.714843 h -41.019531 c -1.496093 0 -2.714843 -1.214843 -2.714843 -2.714843 v -36.433594 c 0 -1.5 1.21875 -2.714844 2.714843 -2.714844 z m 0 0" fill="url(#f)"/>
    <path d="m 69.84375 10.015625 h 41.292969 c 1.589843 0 2.878906 1.289063 2.878906 2.878906 v 92.253907 c 0 1.589843 -1.289063 2.878906 -2.878906 2.878906 h -41.292969 c -1.589844 0 -2.878906 -1.289063 -2.878906 -2.878906 v -92.253907 c 0 -1.589843 1.289062 -2.878906 2.878906 -2.878906 z m 0 0" fill="url(#g)"/>
    <path d="m 81.832031 56.261719 c -3.171875 2.449219 -4.210937 4.472656 -4.828125 7.800781 c -0.921875 4.957031 1.972656 8.730469 17.375 15.738281 v 10.648438 h -18.617187 s -3.632813 -4.21875 -11.886719 -4.230469 s -11.753906 4.230469 -11.753906 4.230469 h -18.394532 l -0.03125 -10.867188 c 11.691407 -6.21875 17.285157 -8.511719 17.191407 -15.519531 c -0.019531 -1.488281 0.84375 -4.574219 -4.640625 -7.78125 z m 0 0" fill="url(#h)"/>
    <path d="m 46.246094 56.28125 c 2.242187 1.582031 4.449218 2.929688 4.644531 8.855469 s -4.019531 12.746093 -17.183594 19.988281 h 18.417969 s 2.414062 -11.210938 11.867188 -11.210938 c 9.453124 0 11.738281 11.210938 11.738281 11.210938 h 18.648437 c -13.84375 -6.042969 -17.398437 -9.3125 -17.328125 -19.988281 c 0.023438 -3.957031 1.875 -6.746094 4.78125 -8.875 z m 0 0" fill="url(#i)"/>
    <path d="m 63.992188 73.914062 c -9.453126 0 -11.867188 11.214844 -11.867188 11.214844 l -0.003906 5.320313 s 3.5 -4.242188 11.753906 -4.230469 c 8.242188 0.011719 11.875 4.21875 11.886719 4.230469 l -0.03125 -5.320313 s -2.285157 -11.214844 -11.738281 -11.214844 z m 0 0" fill="url(#j)"/>
    <path d="m 33.707031 85.125 h 18.414063 v 5.324219 h -18.414063 z m 0 0" fill="#5e5c64"/>
    <path d="m 75.730469 85.128906 h 18.648437 v 5.320313 h -18.648437 z m 0 0" fill="#5e5c64"/>
    <path d="m 114.070312 34.066406 l -30.246093 2.1875 s -1.003907 0.308594 -1.542969 1.199219 c -0.535156 0.886719 -0.453125 2.160156 -0.453125 2.160156 v 16.648438 c 0.085937 -0.132813 0.40625 -8.191407 8.988281 -12.710938 c 8.585938 -4.519531 23.242188 -7.273437 23.242188 -7.273437 z m -32.242187 22.195313" fill="url(#k)"/>
    <path d="m 46.277344 39.613281 h 35.554687 v 16.648438 h -35.554687 z m 0 0" fill="#9a9996"/>
    <path d="m 46.277344 39.613281 l -0.011719 -11.109375 l 35.46875 -0.019531 c 0.367187 1.664063 0.742187 2.039063 2.105469 2.226563 l 30.230468 1.085937 v 2.269531 l -30.214843 2.253906 s -0.988281 0.308594 -1.488281 1.167969 s -0.535157 2.125 -0.535157 2.125 z m 0 0" fill="url(#l)"/>
    <path d="m 40.011719 51.859375 s -8.628907 -1.527344 -18.558594 -6.871094 c -9.925781 -5.34375 -12.90625 -12.035156 -12.90625 -12.035156 h 31.492187 z m 0 0" fill="url(#m)"/>
    <path d="m 40.007812 30.734375 l 6.257813 -0.023437 l -0.015625 7.800781 l -6.222656 0.015625 z m 0 0" fill="#c0bfbc"/>
    <path d="m 40.027344 38.527344 l 6.222656 -0.015625 l 0.011719 15.546875 l -6.238281 -0.09375 z m 0 0" fill="#77767b"/>
</svg>
