<?xml version="1.0" encoding="UTF-8"?>
<svg height="16px" viewBox="0 0 16 16" width="16px" xmlns="http://www.w3.org/2000/svg">
    <g fill="#241f31">
        <path d="m 2.039062 1.007812 h 4.945313 c 0.558594 0 1.011719 0.449219 1.011719 1.003907 v 4.007812 c 0 0.550781 -0.453125 1 -1.011719 1 h -4.945313 c -0.558593 0 -1.011718 -0.449219 -1.011718 -1 v -4.007812 c 0 -0.554688 0.453125 -1.003907 1.011718 -1.003907 z m 0 0"/>
        <path d="m 10.003906 0.996094 h 3.984375 c 0.550781 0 0.996094 0.445312 0.996094 0.996094 v 12 c 0 0.550781 -0.445313 0.996093 -0.996094 0.996093 h -3.984375 c -0.546875 0 -0.992187 -0.445312 -0.992187 -0.996093 v -12 c 0 -0.550782 0.445312 -0.996094 0.992187 -0.996094 z m 0 0"/>
        <path d="m 2.046875 7.996094 h 4.933594 c 0.5625 0 1.019531 0.453125 1.019531 1.015625 v 4.945312 c 0 0.558594 -0.457031 1.015625 -1.019531 1.015625 h -4.933594 c -0.5625 0 -1.019531 -0.457031 -1.019531 -1.015625 v -4.945312 c 0 -0.5625 0.457031 -1.015625 1.019531 -1.015625 z m 0 0"/>
    </g>
</svg>
