<?xml version="1.0" encoding="UTF-8" standalone="no"?>
<svg
   height="16px"
   viewBox="0 0 16 16"
   width="16px"
   version="1.1"
   id="svg1"
   sodipodi:docname="org.gnome.shell.extensions.anvil-symbolic.svg"
   inkscape:version="1.4.4 (dcaf3e7d9e, 2026-05-05)"
   xmlns:inkscape="http://www.inkscape.org/namespaces/inkscape"
   xmlns:sodipodi="http://sodipodi.sourceforge.net/DTD/sodipodi-0.dtd"
   xmlns="http://www.w3.org/2000/svg"
   xmlns:svg="http://www.w3.org/2000/svg">
  <defs
     id="defs1" />
  <sodipodi:namedview
     id="namedview1"
     pagecolor="#ffffff"
     bordercolor="#000000"
     borderopacity="0.25"
     inkscape:showpageshadow="2"
     inkscape:pageopacity="0.0"
     inkscape:pagecheckerboard="true"
     inkscape:deskcolor="#d1d1d1"
     showgrid="true"
     inkscape:zoom="22.627417"
     inkscape:cx="-0.15467961"
     inkscape:cy="13.722291"
     inkscape:window-width="1708"
     inkscape:window-height="1355"
     inkscape:window-x="26"
     inkscape:window-y="23"
     inkscape:window-maximized="0"
     inkscape:current-layer="svg1">
    <inkscape:grid
       id="grid1"
       units="px"
       originx="0"
       originy="0"
       spacingx="1"
       spacingy="1"
       empcolor="#0099e5"
       empopacity="0.30196078"
       color="#0099e5"
       opacity="0.14901961"
       empspacing="5"
       enabled="true"
       visible="true" />
  </sodipodi:namedview>
  <path
     d="M 1,4 C 0,4 0,5 2.238281,6.042969 3.394531,6.601562 4.980469,6.996094 4.980469,6.996094 5.5612132,7 6,7.4609375 6,8 6,9 3.4492874,12 3,12 2.5507126,12 2,12.426819 1.9910354,13.00004 1.9820708,13.573261 2.5085677,14 2.9999912,14.002993 L 5,14 c 0.569,0 1,-0.496343 1,-1 0,-0.503657 0.7403592,-1.491767 2,-1.491767 1.2596408,0 2,1.016145 2,1.491767 0,0.475622 0.516262,1 1,1 h 2 c 0.609375,0 1,-0.44336 1,-1 0,-0.55664 -0.485524,-1 -1,-1 -0.514476,0 -3.000001,-2.996089 -3,-4 10e-7,-1.003911 0.343362,-1.8067516 2,-2.4233307 C 13.656638,4.9600903 15,5 15,5 16,5 16,4 15,4 Z"
     id="path1"
     sodipodi:nodetypes="cccszzcczzzcczzzzccc" />
</svg>
